<svg width="20" height="33" viewBox="0 0 20 33" fill="none" xmlns="http://www.w3.org/2000/svg">
<path d="M9.47656 26.2344C7.61719 26.2344 6.17578 25.6641 5.15234 24.5234C4.13672 23.375 3.62891 21.7539 3.62891 19.6602C3.62891 17.5117 4.14453 15.8516 5.17578 14.6797C6.21484 13.5078 7.69141 12.9219 9.60547 12.9219C10.2227 12.9219 10.8398 12.9883 11.457 13.1211C12.0742 13.2539 12.5586 13.4102 12.9102 13.5898L12.3125 15.2422C11.8828 15.0703 11.4141 14.9297 10.9062 14.8203C10.3984 14.7031 9.94922 14.6445 9.55859 14.6445C6.94922 14.6445 5.64453 16.3086 5.64453 19.6367C5.64453 21.2148 5.96094 22.4258 6.59375 23.2695C7.23438 24.1133 8.17969 24.5352 9.42969 24.5352C10.5 24.5352 11.5977 24.3047 12.7227 23.8438V25.5664C11.8633 26.0117 10.7812 26.2344 9.47656 26.2344Z" fill="black"/>
<circle cx="10" cy="20" r="9.5" stroke="black"/>
</svg>
