<svg width="1440" height="759" viewBox="0 0 1440 759" fill="none" xmlns="http://www.w3.org/2000/svg">
<path fill-rule="evenodd" clip-rule="evenodd" d="M0 579.333L61 599.296C122 619.259 244 659.185 366 669.167C488 679.148 610 659.185 732 669.167C854 679.148 976 719.074 1098 739.037C1220 759 1342 759 1403 759H1464V220H1403C1342 220 1220 220 1098 220C976 220 854 220 732 220C610 220 488 220 366 220C244 220 122 220 61 220H0V579.333Z" fill="#FBB040"/>
<path d="M1500 0.216797V220.227H0C83.55 187.767 208.28 147.447 375.93 110.217C405.44 103.667 436.27 97.2168 468.45 90.9168C592.49 66.6268 736.43 44.6568 900.82 28.4268C973.54 21.2468 1050.27 15.1868 1131.05 10.5468C1223.71 5.2268 1321.71 1.76679 1425.1 0.626793C1449.76 0.356793 1474.73 0.216797 1500 0.216797Z" fill="#FBB040"/>
</svg>
