<svg width="1440" height="752" viewBox="0 0 1440 752" fill="none" xmlns="http://www.w3.org/2000/svg">
<path fill-rule="evenodd" clip-rule="evenodd" d="M-38 574.333L23.7083 594.074C85.4167 613.815 208.833 653.296 332.25 663.167C455.667 673.037 579.083 653.296 702.5 663.167C825.917 673.037 949.333 712.519 1072.75 732.259C1196.17 752 1319.58 752 1381.29 752H1443V219H1381.29C1319.58 219 1196.17 219 1072.75 219C949.333 219 825.917 219 702.5 219C579.083 219 455.667 219 332.25 219C208.833 219 85.4167 219 23.7083 219H-38V574.333Z" fill="#F7A232"/>
<path d="M1500 176.467V220.198H0V38.3975C124.87 19.4575 256.26 6.8375 379.73 2.1875C408.46 1.1075 436.76 0.457492 464.45 0.257492C470.47 0.207492 476.47 0.1875 482.43 0.1875C615.53 0.1875 759.73 10.0875 900.82 28.3975C1018.54 43.6575 1134.1 64.7775 1239.22 90.8875C1264.02 97.0475 1288.25 103.478 1311.78 110.188C1319.08 112.257 1326.31 114.368 1333.47 116.497C1354.11 122.627 1374.17 128.977 1393.58 135.527C1431.79 148.408 1467.46 162.087 1500 176.467Z" fill="#F7A232"/>
</svg>
