<svg width="214" height="416" viewBox="0 0 214 416" fill="none" xmlns="http://www.w3.org/2000/svg">
<path d="M199.828 397.536C199.828 406.561 161.479 414.001 111.983 415.047C108.044 415.135 104.048 415.178 99.9792 415.178C93.1201 415.178 86.4064 415.062 79.9396 414.815C34.3964 413.187 0.130005 406.067 0.130005 397.536C0.130005 388.89 35.4137 381.682 81.945 380.185C87.8014 379.996 93.8177 379.895 99.9792 379.895C104.76 379.895 109.454 379.953 114.046 380.069C162.539 381.275 199.828 388.643 199.828 397.536Z" fill="#EB942A"/>
<path d="M101.723 250.734C76.1758 250.734 55.4387 242.698 40.093 226.829C7.68664 193.348 9.6194 134.188 10.4332 108.917L10.5494 105.269C10.7529 98.323 16.4494 92.8154 23.3521 92.8154C23.4684 92.8154 23.5992 92.8154 23.73 92.8154C30.807 93.0189 36.3728 98.9189 36.1693 105.996L36.0531 109.745C35.341 131.761 33.6553 183.306 58.505 208.999C68.9825 219.825 83.1221 225.1 101.723 225.1C108.8 225.1 114.54 230.84 114.54 237.917C114.54 244.994 108.8 250.734 101.723 250.734Z" fill="#709B3F"/>
<path d="M101.912 339.975C94.4862 339.975 87.816 334.773 86.2465 327.216C84.4446 318.555 89.9958 310.068 98.6568 308.266C101.665 307.641 105.08 307.278 109.033 306.857C127.372 304.909 155.099 301.988 173.424 272.372C185.834 252.304 181.78 218.72 179.091 196.501C178.278 189.802 177.58 184.003 177.304 178.975C176.824 170.14 183.611 162.598 192.446 162.118C201.325 161.711 208.824 168.425 209.303 177.26C209.521 181.213 210.161 186.517 210.902 192.65C214.128 219.316 218.996 259.613 200.671 289.244C174.078 332.215 132.429 336.618 112.404 338.74C109.44 339.06 106.635 339.35 105.196 339.655C104.092 339.859 102.987 339.975 101.912 339.975Z" fill="#709B3F"/>
<path d="M189.787 235.795C189.249 235.795 188.697 235.737 188.145 235.621C187.607 235.505 186.895 235.447 186.038 235.359C179.571 234.676 164.399 233.078 154.939 217.79C148.4 207.225 150.071 193.391 151.175 184.236C151.408 182.347 151.611 180.676 151.684 179.339C151.917 174.921 155.738 171.637 160.113 171.767C164.53 172 167.916 175.778 167.684 180.196C167.597 181.824 167.364 183.844 167.088 186.154C166.245 193.086 164.981 203.563 168.57 209.347C173.903 217.965 181.896 218.807 187.723 219.418C189.22 219.578 190.47 219.723 191.4 219.926C195.73 220.827 198.506 225.071 197.605 229.401C196.835 233.194 193.507 235.795 189.787 235.795Z" fill="#709B3F"/>
<path d="M116.894 305.956C116.618 316.753 116.284 327.55 115.892 338.347C115.383 352.269 114.758 366.176 114.046 380.069C113.436 391.738 112.738 403.407 111.983 415.047C108.045 415.134 104.048 415.178 99.9793 415.178C93.1202 415.178 86.4064 415.062 79.9397 414.815C79.9251 414.437 79.9397 414.059 79.9687 413.681C80.6953 402.535 81.3638 391.36 81.9451 380.185C84.2411 336.764 85.4764 293.182 85.6653 249.586C85.7089 240.911 85.7089 232.249 85.6653 223.574C85.302 154.881 82.3374 86.2176 76.7572 18.0772C76.0451 9.25627 82.599 1.52525 91.4199 0.798654C100.226 0.188311 107.972 6.65504 108.698 15.476C116.56 111.736 119.292 209.027 116.894 305.956Z" fill="#709B3F"/>
</svg>
